<?xml version="1.0" encoding="UTF-8"?><svg id="_Слой_1" xmlns="http://www.w3.org/2000/svg" viewBox="0 0 729.25 150.24"><defs><style>.cls-1{fill:orange;}.cls-2{fill:#51c878;}</style></defs><g><path class="cls-2" d="m99.05,0c2.99.25,5.56,1.22,7.74,2.93,6.69,5.2,7.44,15.27,1.33,21.19-3.07,2.96-6.78,4.31-11.09,4.01-1.99-.14-3.87-.72-5.67-1.74-3.76-2.16-6.08-5.42-6.94-9.79-.44-2.24-.3-4.48.41-6.72,1.22-3.73,3.51-6.47,6.89-8.27,1.69-.89,3.62-1.41,5.78-1.6,0,0,1.55,0,1.55,0Zm-3.9,11.01s-.06.03-.08.03c-1.19-.03-2.38-.03-3.6,0-2.07.03-1.94,1.55-1.94,3.07s-.17,3.04,1.94,3.07h3.6s.06,0,.08.03.03.06.03.08c-.03,1.19-.03,2.38,0,3.6.03,2.07,1.55,1.91,3.07,1.91s3.04.17,3.07-1.94v-3.57s0-.06.03-.08.06-.03.08-.03c1.19.03,2.38.03,3.6,0,2.07-.03,1.94-1.55,1.94-3.07s.17-3.04-1.94-3.07h-3.57s-.06,0-.08-.03-.03-.06-.03-.08c.03-1.19.03-2.38,0-3.6-.03-2.07-1.55-1.94-3.07-1.94s-3.04-.17-3.07,1.94v3.6s-.06.06-.06.08Z"/><path class="cls-1" d="m86.63,42.46s.08.03.11,0c0,0,.03-.03.03-.06v-12.25c0-.06.03-.08.08-.08h23.81c.08,0,.11.03.11.11v33.47c0,.19.08.39.25.53l21.8,19.28c.06.03.06.11,0,.14-.03.03-.06.03-.08.03h-17.98c-.19,0-.36-.06-.5-.19l-47.71-42.18c-.14-.11-.28-.11-.39,0l-47.41,42.1c-.22.19-.5.3-.77.3H.26c-.3,0-.33-.11-.11-.3L62.05,28.32c.11-.11.25-.17.41-.17h7.58c.36,0,.75.19,1.16.55,4.31,3.9,9.46,8.46,15.43,13.75Z"/><circle class="cls-1" cx="74.8" cy="63.34" r="4.4"/><circle class="cls-1" cx="56.9" cy="65.94" r="4.15"/><path class="cls-1" d="m75.54,89.89c0-.06-.03-.08-.08-.08h-1.33c-.06,0-.08.03-.08.08v18.56c0,.91-.08,1.52-.22,1.88-.25.64-.75,1.08-1.49,1.36-1.83.69-3.4-.72-3.4-2.63v-33.77c0-.11-.08-.19-.19-.19h-1.05c-.14,0-.22.08-.22.22v11.87c0,.83-.06,1.33-.17,1.55-.28.5-.69.86-1.22,1.08-.06.03-.06.06-.03.11l2.13,3.24c.03.06.03.11-.03.14-.03,0-.03.03-.06.03h-5.45c-.08,0-.14.06-.14.14.03,7.97,0,13.36-.03,16.18,0,.69-.39,1.33-1.13,1.83-1.16.8-2.99.25-3.51-1.13-.14-.36-.22-.91-.22-1.66v-15.18c0-.14-.06-.19-.19-.19h-1.02c-.11,0-.17.06-.17.17v16.07c0,.66-.28,1.22-.83,1.69-1.66,1.38-3.98.3-3.98-1.85v-15.93c0-.06-.06-.11-.14-.11h-5.97c-.06,0-.08-.03-.08-.08t.03-.06l5.89-9.1c.17-.25.25-.53.25-.83,0-1.88.03-3.84,0-5.84,0-.19-.03-.33-.11-.39-.11-.08-.25-.08-.47-.03-.14.03-.22.14-.28.28-.89,2.77-2.07,6.42-3.57,11.04-.25.77-.83,1.11-1.63,1.33-1.3.36-2.52.69-3.65,1.05-.14.06-.25.17-.25.33v18.75c0,.8-.22,1.36-.64,1.66-.47.33-.97.39-1.55.19-.64-.22-.97-.77-1-1.63-.03-1.71-.03-4.84,0-9.35,0-.14-.06-.22-.22-.22h-.91c-.11,0-.22.11-.22.22h0v9.21c0,.75-.22,1.24-.64,1.55-1.19.83-2.57-.03-2.57-1.41v-17.73c0-.14-.08-.22-.22-.22h-.83c-.14,0-.22.08-.22.22l-.03,5.89c0,.77-.39,1.16-1.16,1.13h-.06c-.77,0-1.13-.41-1.16-1.16v-6.11c0-1,.11-1.74.36-2.27.64-1.38,1.85-2.07,3.65-2.07.28,0,2.71,0,7.25-.03.61,0,1.33-.06,2.16-.19.08-.03.14-.06.17-.14,2.05-6.42,3.29-10.26,3.71-11.56.53-1.63.97-2.63,1.33-2.99.8-.83,1.91-1.24,3.32-1.27h10.93c.25,0,.53.03.77.11.28.08.5.11.66.14.08,0,.17-.03.22-.11.86-1.63,2.41-2.43,4.62-2.43h9.98c1.11,0,1.88.06,2.32.17.72.19,1.41.58,2.07,1.16.39.36.72.94.97,1.74,2.05,6.53,3.48,11.04,4.29,13.53.06.14.17.22.3.25.89.14,1.8.22,2.71.25.03,0,2.57.03,7.66.06,1.99.03,3.65,1.52,3.68,3.54.03,2.74.03,5.28,0,7.63,0,.75-.39,1.13-1.13,1.16h-.08c-.83-.11-1.24-.55-1.24-1.36l-.03-6.22c0-.11-.08-.19-.19-.19h-.91c-.14,0-.19.06-.19.19,0,8.05,0,14.33-.03,18.81,0,.97-.44,1.58-1.33,1.77-.47.11-.89.03-1.27-.22-.66-.41-.77-.91-.77-1.71,0-3.54,0-6.8-.03-9.79,0-.08-.06-.14-.14-.14h-1.05c-.08,0-.17.06-.17.14h0v9.35c0,.75-.08,1.24-.25,1.55-.64,1.11-2.24,1.13-2.9.06-.14-.25-.22-.72-.22-1.41v-19.69c0-.17-.11-.3-.28-.36-1.94-.55-3.35-.94-4.26-1.22-.64-.17-1.05-.58-1.27-1.22-.55-1.63-1.83-5.5-3.76-11.62-.08-.28-.28-.39-.55-.41-.3,0-.44.14-.44.47.03,3.01.03,14.35.03,33.99,0,.72-.36,1.33-1.11,1.83-.97.66-1.94.66-2.88.03-.75-.5-1.11-1.27-1.13-2.27,0-.83,0-7.25,0-19.14Zm-12.94-12.83c-.08,0-.14.06-.14.14v7.19s0,.06.03.08l1.05,1.63c.03.06.14.08.19.03.03-.03.06-.06.06-.11v-8.82c0-.08-.06-.14-.14-.14h-1.05Z"/><circle class="cls-1" cx="95.1" cy="81.95" r="2.9"/><circle class="cls-1" cx="37.68" cy="83.56" r="2.77"/><path class="cls-1" d="m34.8,136.19c.03-.58,0-1.13-.14-1.66-.39-1.55-1.16-2.96-2.3-4.2-.69-.75-3.46-3.73-8.35-8.93-.89-.94-1.22-1.99-1.02-3.13.28-1.55,1.58-2.68,3.1-2.79,1.02-.08,1.94.28,2.74,1.05,2.05,2.05,4.4,4.4,7,7.05.03.06.08.06.14.06.14,0,.28-.03.44-.08.25-.08.53.03.61.28.03.08.03.14.03.22l-.06.55c0,.08.03.14.06.19l1.74,1.77c.08.08.19.14.33.14h6.67c.17,0,.25.08.25.25v.14c0,.17-.08.25-.25.25h-5.89c-.08,0-.17.08-.17.17,0,.03,0,.06.03.08.14.19.36.3.66.41.08.03.17.08.22.17.06.08.14.25.19.5.06.17.14.25.3.25.11,0,.17-.06.17-.17l.06-.55c0-.08.08-.17.19-.17h.39c.11,0,.19.08.22.19l.17,1.69c.03.14.08.28.19.39,1.77,1.74,2.9,2.9,3.46,3.43,1.24,1.24,2.13,2.41,2.68,3.46.69,1.36,1.05,2.96,1.02,4.81-.03,4.26-.03,6.91,0,8.02,0,.14-.06.22-.22.22h-15.1c-.06,0-.11-.06-.11-.11h0c.03-1.24,0-2.41-.06-3.43-.06-1.22-.5-2.24-1.33-3.1-2.05-2.16-6.36-6.72-12.94-13.75-1.66-1.77-2.74-3.13-3.26-4.09-1.02-1.88-1.55-3.9-1.55-6.03v-23.21c0-1.6.77-2.85,2.19-3.62,1.8-1,3.54-.72,5.17.8.77.72,1.16,1.71,1.16,2.99.03,7.27.06,12.72.03,16.37,0,.14-.08.25-.19.33-2.79,1.55-4.31,4.43-3.07,7.52.25.64.86,1.47,1.83,2.54,1.44,1.58,4.09,4.51,7.99,8.8,1,1.11,1.77,2.38,1.71,3.98,0,.08.08.17.17.17h2.52c.14-.08.19-.11.19-.22Z"/><path class="cls-1" d="m90.62,129.28c0,.06.03.08.08.08.03,0,.06,0,.06-.03l.17-.19c.06-.06.06-.11.06-.17v-2.57c0-.06.06-.11.11-.11h2.66c.11,0,.22-.11.22-.22v-.08c0-.06-.03-.08-.08-.08h-2.79c-.06,0-.14-.06-.14-.11h0v-.33c0-.08.06-.14.14-.14h3.48c.22,0,.41-.11.53-.3.64-1.08-1.19-1.24-1.19-.28,0,.11-.08.22-.22.22h-2.57c-.11,0-.17-.06-.17-.17v-2.38c0-.11.06-.19.19-.19h5.34c.11,0,.17.06.14.17,0,.06-.03.14-.06.19-.03.08-.08.14-.17.17-.06.03-.19.06-.36.06-.08,0-.17.06-.25.11-.19.22-.22.5-.06.86.11.22.25.25.41.08.75-.69,1.33-2.02.36-2.82-.19-.17-.53-.22-1.02-.22-1.13.03-2.35.03-3.65-.03-.08,0-.14-.06-.14-.14h0c.03-1.11,0-1.96.55-3.07.19-.39.55-.8,1.08-1.22.83-.66,1.36-1.08,1.58-1.24.08-.06.28-.08.58-.06,1.41.17,2.32.83,2.71,1.96.11.33.17,1.05.17,2.16v2.19c0,.06.06.11.11.11.03,0,.06,0,.08-.03.8-.77,2.38-2.41,4.81-4.84,1.13-1.16,2.43-1.47,3.9-.94,1.05.39,1.71,1.19,2.02,2.38.3,1.19,0,2.24-.86,3.18-5.56,5.97-8.44,9.07-8.68,9.35-1.36,1.55-2.1,3.37-2.19,5.48,0,.14.08.25.22.25h2.41c.08,0,.14-.06.14-.14.11-1.52.61-2.74,1.47-3.68,5.17-5.67,8.21-8.99,9.13-10.01.75-.86,1.22-1.85,1.41-3.01.39-2.6-1.08-4.95-3.37-6.14-.11-.06-.19-.19-.19-.33v-15.16c0-1.41.11-2.38.3-2.9.39-1,1.11-1.74,2.16-2.24,2.49-1.22,5.48.28,6,2.99.06.28.08,1.24.08,2.93.03,6.86.03,13.44,0,19.69,0,2.24-.08,4.01-.89,5.92-.75,1.71-1.49,2.99-2.3,3.84-5.95,6.31-10.84,11.51-14.69,15.6-.97,1.05-1.41,2.32-1.3,3.82.03.39.03,1.22-.03,2.57,0,.08-.06.14-.14.14h-15.16c-.08,0-.14-.06-.14-.14v-8.16c0-2.88.97-5.34,2.93-7.36,1.19-1.22,2.32-2.38,3.4-3.43.19-.19.14-.28-.11-.28h-4.29c-.19,0-.36-.17-.36-.36-.03-2.3-.03-5.17-.03-8.66,0-.91.36-1.77,1.08-2.54.17-.17.36-.22.58-.11.89.39,1.77.47,2.66.14.25-.11.5-.17.72-.17.11,0,.19.03.25.08.77.8,1.16,1.71,1.16,2.68-.06,1.38-.06,3.84-.06,7.38Zm-1.16-9.13c0-.19-.14-.33-.33-.33h0c-.19,0-.33.14-.33.33s.14.33.33.33.33-.17.33-.33h0Zm.5,1.36c0-.19-.17-.33-.33-.33s-.33.17-.33.33.17.33.33.33.33-.14.33-.33Zm4.37,1.58c0-.33-.28-.61-.61-.61h0c-.33,0-.61.28-.61.61s.28.61.61.61.61-.28.61-.61h0Zm-1.63.8c0-.39-.3-.69-.69-.69s-.69.3-.69.69h0c0,.39.3.69.69.69h0c.39,0,.69-.3.69-.69Z"/><path class="cls-1" d="m41.8,111.66h0c.17,0,.3.14.3.3v13.77c0,.17-.14.3-.3.3h0c-.17,0-.3-.14-.3-.3v-13.77c.03-.17.14-.3.3-.3Z"/><path class="cls-1" d="m84.48,113.1c-.28.06-.61.28-.94.66-.06.06-.14.11-.22.11h-1.94c-.08,0-.17-.03-.25-.08-.44-.33-.89-.5-1.38-.5-.11,0-.19-.08-.19-.19v-1.11c0-.19.17-.36.36-.36h5.23c.08,0,.17.08.17.17v.94c0,.08-.06.17-.14.19-.06.06-.3.11-.69.17Z"/><path class="cls-1" d="m85.97,111.63h.25c.14,0,.25.11.25.25l.03.89c0,.14-.11.25-.25.25h-.25c-.14,0-.25-.11-.25-.25l-.03-.89c0-.14.11-.25.25-.25Z"/><path class="cls-2" d="m61.19,116.03c0,2.1-1.71,3.82-3.82,3.82h0c-2.1,0-3.82-1.71-3.82-3.82s1.71-3.82,3.82-3.82,3.82,1.71,3.82,3.82h0Zm-.55,0c0-1.8-1.47-3.26-3.26-3.26s-3.26,1.47-3.26,3.26,1.47,3.26,3.26,3.26h0c1.8,0,3.26-1.47,3.26-3.26h0Z"/><path class="cls-1" d="m91.78,113.98l.66,1.3s0,.08-.03.11l-.14.06c-.06.03-.11.03-.14-.06l-.91-1.83c-.06-.11-.03-.19.03-.28.3-.3.69-.61,1.19-.86.08-.06.19-.03.25.06l1.27,1.41s.03.08,0,.11h0l-.08.06c-.06.06-.17.06-.19,0h0l-.75-.83c-.08-.08-.17-.11-.25-.06-.39.17-.66.36-.89.55-.08.11-.08.17-.03.25Z"/><path class="cls-1" d="m84.97,114.53c.06.17.17.5.39.97.03.08,0,.17-.06.19-.11.06-.22.03-.33-.08-.19-.19-.36-.5-.47-.97-.11-.44-.14-.8-.08-1.08.03-.17.11-.22.25-.22.08,0,.14.06.17.14.03.55.08.89.14,1.05Z"/><path class="cls-1" d="m92.94,114.95c-.08.06-.17.06-.25-.03h0l-.03-.03c-.36-.47-.53-.94-.36-1.05h0l.19-.14c.17-.11.55.17.91.64l.03.03c.06.08.06.17-.03.25h0l-.47.33Z"/><path class="cls-1" d="m81.46,114.23h1.63c.14,0,.22.11.22.22v.33c0,.14-.11.22-.22.22h-1.63c-.14,0-.22-.11-.22-.22v-.33c0-.11.11-.22.22-.22Z"/><path class="cls-1" d="m92.47,115.78l1.74-1.38c.08-.06.19-.06.25.03l.22.28c.06.08.06.19-.03.25l-1.74,1.38c-.08.06-.19.06-.25-.03l-.22-.28c-.06-.08-.06-.19.03-.25Z"/><path class="cls-1" d="m87.96,115.97c-.19.11-.5.14-.91.06-.28-.06-.39-.22-.33-.53.03-.17.17-.3.36-.3h2.71c.11,0,.19.06.25.14.14.22.08.36-.11.39-.06,0-.11,0-.17-.03-.41-.19-.77-.28-1.11-.17-.03.03-.25.17-.69.44Z"/><path class="cls-1" d="m78.67,128.45c0-.11,0-.17-.06-.17.03-.83-.11-1.96-.5-3.4-.44-1.74-.22-3.32.64-4.76.25-.41.5-.8.77-1.22.11-.17.17-.41.14-.8,0-.19.03-.58.08-1.22,0-.11.08-.17.19-.17h1.47c.08,0,.14-.03.14-.11,0-.06-.03-.11-.08-.14-.03-.03-.17-.08-.39-.19-.08-.03-.14-.11-.14-.19-.03-.19,0-.39.06-.61.03-.08.08-.11.14-.11h2.3c.08,0,.14.03.17.11.06.19.08.41.06.64,0,.11-.08.19-.19.22l-.44.08c-.06,0-.11.08-.08.14l.03.11c0,.06.08.11.14.08.47-.08.91-.08,1.36,0,.22.06.33.19.33.41,0,.8,0,1.3.03,1.49,0,.28-.06.53-.17.72-.17.28-.3.5-.41.64-.33.47-.47,1.24-.47,1.85v6.42c0,.22-.11.33-.33.33-1.47-.03-2.9-.03-4.37,0-.08.03-.25-.06-.39-.17Zm1.05-7.97c-.94,1.02-1.38,2.24-1.05,3.62.08.3.14.53.22.61.14.19.33.25.53.19.3-.08.47-.3.47-.66.03-.41.03-1.66,0-3.71,0-.06-.06-.11-.08-.11-.06.03-.08.06-.08.06Z"/><circle class="cls-1" cx="52.89" cy="116.19" r=".53"/><ellipse class="cls-1" cx="87.44" cy="116.66" rx=".55" ry=".25" transform="translate(-3.62 2.8) rotate(-1.8)"/><path class="cls-1" d="m45.51,121.78h1.66c.14,0,.22.08.22.22v.14c0,.17-.08.25-.25.25h-2.9c-.11,0-.17-.06-.22-.14-.06-.17,0-.28.19-.36.06-.03.19-.06.44-.11.08-.03.14-.08.14-.17-.06-1.85.17-3.32,1.91-4.29,1.05-.55,2.07-.58,3.15-.08.97.47,1.6,1.16,1.94,2.07,0,.03.06.3.11.89.06.39.25.69.58.86.08.03.11.11.11.19v2.52c0,.14-.08.25-.19.28l-.17.06c-.11.03-.25-.03-.28-.14v-1.33c0-.17-.08-.25-.25-.25h-.19c-.19,0-.28.08-.28.28v1.19c0,.14-.06.19-.19.19h-.17c-.14,0-.25-.11-.25-.25v-1.22c0-.14-.06-.19-.19-.19h-.14c-.22,0-.33.11-.33.33v1.13c0,.14-.06.19-.19.22-.06,0-.11.03-.14,0-.19-.03-.3-.17-.3-.36v-1.08c0-.17-.08-.25-.22-.28-.08,0-.14,0-.17.03-.17.08-.25.19-.25.39l-.03,1.05c0,.14-.06.22-.19.25-.06,0-.08.03-.11.03-.17,0-.3-.14-.3-.3v-2.46c0-.25.22-.47.47-.47h2.68c.08,0,.14-.06.14-.14h0c-.08-2.05-1.66-3.48-3.73-3.01-1.16.25-2.1,1.38-2.19,2.49-.03.22-.06.69-.08,1.44-.03.06.03.14.17.14Z"/><path class="cls-2" d="m74.1,121.53c-.69,1.66-2.66,2.43-4.34,1.71s-2.52-2.66-1.83-4.31h0c.69-1.66,2.66-2.43,4.34-1.71,1.71.75,2.54,2.66,1.83,4.31h0Zm-.58.06c.72-1.33.19-3.01-1.19-3.73-1.36-.75-3.04-.25-3.76,1.08s-.19,3.01,1.19,3.73c1.36.72,3.04.25,3.76-1.08Z"/><path class="cls-1" d="m86.58,117.3h1.58c.14,0,.28.11.28.28v.39c0,.14-.11.28-.28.28h-1.58c-.14,0-.28-.11-.28-.28v-.39c.03-.17.14-.3.28-.28Z"/><path class="cls-1" d="m88.71,118.6s.03,0,.03.03h0c0,.28-.55.5-1.22.5h-.22c-.66,0-1.22-.22-1.22-.5h0s0-.03.03-.03h2.6Z"/><circle class="cls-1" cx="38.54" cy="120.15" r=".55"/><path class="cls-2" d="m78.61,128.28c.06-.03.06.03.06.17-.06.08-.06.19,0,.3.44,1.49.64,3.04.58,4.59s-.08,2.3-.08,2.32v13.28c0,.08-.06.14-.14.14-2.63-.03-4.56-.03-5.78,0-.47,0-.69-.3-.66-.94.03-.61.44-1.11,1.24-1.44.17-.06.22-.19.22-.36-.11-5.39-.19-8.82-.22-10.29,0-.47-.08-.91-.19-1.3-.14-.41-.28-.83-.44-1.24-.14-.33-.28-.33-.39,0-.17.47-.58.47-1.02.55-1.44.3-2.54.55-3.37.69-.11.03-.17.08-.17.19v.5c0,.08-.06.14-.14.17l-.11.03c-.14.03-.25-.03-.28-.17l-.08-.44c-.03-.08-.08-.14-.17-.14-.66-.06-1.13-.3-1.41-.69-.22-.36-.39-.33-.47.08-.06.25-.08.53-.06.83,0,3.65,0,8.24.03,13.75,0,.14-.08.25-.25.3-.03,0-.06,0-.11-.03-.11-.06-.19-.17-.19-.3v-14.77c0-.08-.03-.11-.11-.14-.44-.17-.8-.28-1.08-.44-1.02-.64-2.07-1.27-3.13-1.88-.17-.11-.28-.3-.36-.41-.19-.25-.3-.22-.3.11v15.02c0,.19.08.33.25.41.89.44,1.27,1.08,1.16,1.91-.03.19-.19.33-.39.33h-7.05c-.08,0-.14-.06-.14-.14v-23.59c0-1.44.11-2.41.33-2.9.69-1.55,2.9-2.24,4.43-1.27.33.19.64.64.94,1.24.39.8,1.38,2.74,2.9,5.81.11.19.33.41.69.64.94.58,1.85,1.19,2.77,1.8.25.17.53.47.72.72.03.06.08.08.17.06l3.01-.61c.19-.03.36-.22.36-.41.03-.36.11-1.38.22-3.1.11-1.44.58-2.93,2.07-3.43,1.38-.44,2.57-.33,3.6.36.91.61,1.74,2.07,2.05,3.04.22.47.36.86.5,1.11Zm-20.94-2.27c.25-.28.53-.06.83.61.06.11.17.14.28.11h.03l1.6-1.05c.14-.08.17-.22.08-.36-.55-1-1.11-2.05-1.63-3.13-.19-.41-.58-.89-1-.94-1.49-.25-2.54.14-3.1,1.22-.28.5-.39,1.47-.39,2.85,0,3.21,0,5.7.03,7.47,0,.11.08.17.17.17h4.76c.08,0,.14-.03.14-.11.03-.53.06-1.38.06-2.57,0-.44-.14-.89-.41-1.33-.33-.58-.8-1.47-1.44-2.66-.08-.11-.06-.19,0-.28Zm16.65,2.63l-.97,3.15c-.06.22-.06.47.03.69l.89,2.35c.03.06.08.11.17.08l3.98-.83c.08-.03.14-.08.14-.17.17-2.32-.19-4.56-1.05-6.78-.97-2.43-2.38-3.76-5.09-2.85-1.63.55-1.6,3.65-1.66,5.5,0,.33-.08.69-.25,1.11-.03.08-.11.17-.19.17l-1.88.39c-.08.03-.14.08-.11.17l.47,2.27c0,.06.08.11.14.08h0l2.93-.61c.25-.06.47-.25.53-.5l1.33-4.37c.06-.17.14-.22.3-.19l.11.03c.19.11.25.17.19.3Zm-12.47-.5c-.33-.69-.64-1.3-.91-1.85-.06-.11-.19-.14-.3-.08h-.03l-1.55,1.02c-.14.08-.17.22-.08.36.36.69.89,1.63,1.52,2.82.19.36.41.61.69.77,1.16.66,2.24,1.3,3.29,1.91.61.36,1.13.22,1.58-.41,0,0,.03-.03.03-.08.3-.66.14-1.22-.47-1.6-1.33-.86-2.32-1.49-2.93-1.88-.36-.25-.64-.58-.83-.97Zm4.76,4.73c-.11.19-.17.36-.17.5,0,.17.06.33.17.44.41.41.97.55,1.66.39.08-.03.14-.08.11-.17l-.44-2.19c-.03-.14-.11-.19-.25-.17-.19.06-.36.11-.53.17-.08.03-.19.19-.3.47-.17.33-.25.53-.25.55Zm-7.14.72c0-.06-.06-.11-.11-.11h-4.9c-.06,0-.11.06-.11.11l.03,12.83c0,.06.06.11.11.11h4.9c.06,0,.11-.06.11-.11l-.03-12.83Zm18.95,13c.06,0,.11-.06.11-.11v-11.62c0-.06-.06-.11-.11-.11h-.03l-3.93.8c-.06,0-.08.06-.08.11l.25,10.81c0,.06.06.11.11.11h3.68Zm-24.09,1.47c0,.19.17.36.36.36h5.89c.19,0,.36-.17.36-.36,0-.08-.03-.17-.08-.25l-.53-.61c-.06-.08-.17-.11-.28-.11h-5.37c-.19,0-.36.17-.36.36h0v.61Zm24.26.3l-.03-1c0-.11-.08-.19-.19-.19h0l-4.37.08c-.5,0-.89.3-.86.64v.08c0,.36.41.64.89.61h0l4.37-.08c.11.03.19-.06.19-.14h0Z"/><path class="cls-1" d="m91.06,121.17l5.45.03s.08.03.08.08v.47s-.03.08-.08.08l-5.45-.03s-.08-.03-.08-.08v-.47c0-.06.03-.08.08-.08Z"/><ellipse class="cls-1" cx="93.74" cy="123.11" rx=".19" ry=".25" transform="translate(-58.06 153.13) rotate(-63.9)"/><path class="cls-1" d="m46.61,126.4c-.22-.39-.69-.53-1.41-.39-.28.06-.44-.06-.47-.36l-.25-2.41c-.03-.14.06-.22.19-.22h2.46c.14,0,.22.08.22.22-.03.91.36,1.71,1.41,1.33.08-.03.17-.03.28-.03.41.11.8.11,1.16,0,.08-.03.19-.03.28.03.3.17.66.17,1.05-.03.17-.08.36,0,.44.14.03.06.03.11.03.17l-.36,3.65c0,.06-.06.11-.11.11h-4.45c-.06,0-.11-.03-.14-.08-.19-.61-.28-1.22-.25-1.83,0-.11-.03-.22-.08-.3Zm4.37-1.05c0-.19-.17-.33-.33-.33s-.33.17-.33.33.17.33.33.33.33-.14.33-.33Zm-.06,1.22c0-.11-.11-.22-.22-.22h-.19c-.11,0-.22.11-.22.22l.03,1.22c0,.11.11.22.22.22h.19c.11,0,.22-.11.22-.22l-.03-1.22Z"/><ellipse class="cls-1" cx="96.21" cy="123.31" rx=".25" ry=".11" transform="translate(-56.91 155.2) rotate(-63.8)"/><circle class="cls-1" cx="91.97" cy="123.88" r=".33"/><ellipse class="cls-1" cx="94.68" cy="124.67" rx=".36" ry=".28" transform="translate(-42.25 48.8) rotate(-23.8)"/><path class="cls-1" d="m43.04,128l.22-.06c.17-.03.3.06.36.22l.3,1.38c.03.17-.06.3-.22.36l-.22.06c-.17.03-.3-.06-.36-.22l-.3-1.38c-.06-.17.06-.33.22-.36Z"/><path class="cls-1" d="m44.4,127.98l.14-.03c.11-.03.25.03.28.17l.41,1.52c.03.11-.03.25-.17.28l-.14.03c-.11.03-.25-.03-.28-.17l-.41-1.52c-.03-.11.06-.25.17-.28Z"/><path class="cls-1" d="m45.7,128l.14-.03c.11-.03.22.03.25.14l.41,1.55c.03.11-.03.22-.14.25l-.14.03c-.11.03-.22-.03-.25-.14l-.41-1.55c-.03-.11.03-.22.14-.25Z"/><path class="cls-1" d="m47.41,129.33h4.01c.14,0,.22.11.22.22v.11c0,.14-.11.22-.22.22h-4.01c-.14,0-.22-.11-.22-.22v-.11c0-.11.11-.22.22-.22Z"/></g><g><path class="cls-1" d="m533.06,76.03c.17-1,.06-2.79.28-3.96,1.06-4.85,4.13-7.7,9.32-8.43,3.01-.45,5.86-.06,8.59,1.17.33.17.5.5.33.84l-2.01,5.52c-.06.22-.28.28-.5.22,0,0-.06,0-.06-.06-1.17-.67-2.4-.95-3.74-.84-3.12.28-3.57,2.9-3.63,5.52,0,.17.11.28.28.28h7.25c.28,0,.39.11.39.39v6.08c0,.17-.17.33-.33.33h-6.92c-.22,0-.45.22-.45.45h0v22.49c0,.17-.11.28-.28.28h-8.04c-.22,0-.45-.22-.45-.45v-22.49c0-.17-.11-.28-.28-.28h-4.3c-.22,0-.33-.11-.33-.33v-6.19c0-.17.11-.28.28-.28h4.18c.22,0,.33-.06.39-.28Z"/><path class="cls-1" d="m317.34,78.38c0,.11.06.17.17.17q.06,0,.11-.06c2.51-2.01,5.3-3.07,8.37-3.35,5.86-.45,11.44,2.29,13.22,8.15.45,1.51.67,4.07.67,7.59,0,4.85,0,9.88-.06,15.07,0,.22-.11.39-.39.39h-8.31c-.11,0-.22-.11-.22-.22.06-6.64.06-12.33-.06-17.02-.06-2.4-.95-4.24-2.68-5.41-2.01-1.39-5.58-1.12-7.7.28-2.06,1.34-3.12,3.4-3.12,6.25-.06,5.3-.11,10.49-.06,15.68,0,.22-.17.33-.33.33h-8.31c-.11,0-.22-.11-.22-.22h0v-41.74c0-.22.11-.28.28-.28h8.26c.22,0,.33.11.33.33v14.06h.06Z"/><path class="cls-1" d="m383.52,64.04h8.48c.11,0,.17.06.17.17v41.96c0,.11-.06.17-.17.17h-8.48c-.11,0-.17-.06-.17-.17v-41.9c0-.11.06-.22.17-.22Z"/><path class="cls-1" d="m466.83,78.38c0,.11.06.17.17.17q.06,0,.11-.06c2.51-2.01,5.3-3.07,8.37-3.35,5.86-.45,11.44,2.29,13.22,8.15.45,1.51.67,4.07.67,7.59,0,4.85,0,9.88-.06,15.07,0,.22-.11.39-.39.39h-8.26c-.11,0-.22-.11-.22-.22h0c.06-6.64.06-12.28,0-16.96-.06-2.4-.95-4.24-2.68-5.41-2.01-1.39-5.58-1.12-7.7.28-2.06,1.34-3.12,3.4-3.12,6.25-.06,5.25-.11,10.49-.06,15.68,0,.22-.17.33-.33.33h-8.31c-.11,0-.22-.11-.22-.22h0v-41.74c0-.22.11-.28.28-.28h8.26c.22,0,.39.11.39.33l-.11,14.01Z"/><path class="cls-1" d="m515.1,64.04h8.15c.17,0,.33.17.33.33v41.57c0,.17-.17.33-.33.33h-8.15c-.17,0-.33-.17-.33-.33v-41.57c0-.17.17-.33.33-.33Z"/><path class="cls-1" d="m648.06,64.09h8.43c.11,0,.22.11.22.22v41.79c0,.11-.11.22-.22.22h-8.43c-.11,0-.22-.11-.22-.22v-41.79c0-.11.11-.22.22-.22Z"/><path class="cls-1" d="m157.87,106.28v-39.84l8.93-.06c.17,0,.28.11.28.28v15.01c0,.28.22.5.5.5h17.41c.22,0,.39-.17.39-.39h0v-15.23c0-.11.11-.17.17-.17h8.76c.17,0,.28.11.28.28v39.45c0,.17-.11.28-.28.28h-8.59c-.17,0-.33-.17-.33-.33h0v-15.74c0-.17-.11-.28-.28-.28h-17.74c-.17,0-.28.11-.28.28v15.79c0,.17-.17.33-.33.33h0l-8.87-.17Z"/><path class="cls-1" d="m615.81,95.56v10.38c0,.22-.11.33-.33.33h-8.43c-.28,0-.45-.22-.45-.45h0v-39.23c0-.17.11-.28.28-.28h18.08c1.34,0,2.68.28,4.07.5,6.03,1,11.16,5.19,12,11.49,1.34,9.76-5.02,16.13-14.28,16.8-3.24.22-6.81.28-10.6.11-.17.06-.33.17-.33.33h0Zm0-21.37l.06,13.45c0,.11.11.22.22.17h0l8.65-.06c3.96,0,7.2-2.9,7.14-6.42h0v-1.06c0-3.52-3.24-6.36-7.2-6.36l-8.65.06c-.17,0-.22.11-.22.22h0Z"/><path class="cls-1" d="m412.76,83.34v12.05c0,4.46,3.74,5.3,7.14,3.46.22-.11.33-.06.45.17l2.18,5.69c.06.17,0,.39-.22.5-3.46,1.62-7.09,2.01-10.82,1.17-4.74-1.12-7.25-4.18-7.48-9.26-.11-2.68-.17-7.2-.06-13.56,0-.22-.17-.39-.39-.39h-4.13c-.22,0-.33-.11-.33-.33v-6.19c0-.22.11-.33.33-.33h4.07c.22,0,.39-.17.39-.39v-6.75c0-.22.11-.33.33-.33h8.37c.11,0,.17.06.17.17v6.92c0,.17.17.33.33.33h6.92c.22,0,.33.11.33.33v6.25c0,.11-.11.22-.28.22h-7.09c-.11.06-.22.17-.22.28h0Z"/><path class="cls-1" d="m222.32,103.54c0-.61-.17-.67-.56-.17-1,1.34-2.29,2.23-3.79,2.68-5.19,1.62-12.28,1-15.29-4.02-.73-1.17-1.12-2.57-1.17-4.18-.17-4.35,2.01-7.25,6.42-8.7,1.28-.45,2.68-.67,4.18-.78,3.18-.22,5.86-.22,7.92-.06,1.79.11,2.29-.61,1.45-2.18l-.33-.67c-.84-1.73-2.23-2.68-4.13-2.96-4.18-.56-7.87.22-10.99,2.46-.11.06-.28.06-.33-.06h0l-2.85-5.64c-.17-.28-.06-.5.22-.67,2.79-1.62,5.97-2.68,9.54-3.18,5.36-.78,12.55.22,15.85,5.13,1.56,2.34,2.34,5.13,2.34,8.26-.06,10.55-.11,16.29-.11,17.35,0,.17-.11.28-.28.28h-7.81c-.17,0-.28-.11-.28-.28v-2.62Zm-.5-9.65c0-.22-.11-.33-.33-.33-3.18-.06-5.41-.06-6.81.06-1.45.11-2.46.39-3.07.84-1.51,1.23-1.84,2.62-1,4.24,1.23,2.29,4.13,2.46,6.47,1.95,1.9-.45,4.41-2.12,4.69-4.13.06-.73.11-1.62.06-2.62Z"/><path class="cls-1" d="m285.48,82.95c-2.01,1.34-1.23,3.4.89,4.02,6.19,1.84,16.07,1,16.52,9.43.45,8.87-9.65,10.94-16.35,10.38-3.85-.33-7.7-1.06-11.05-3.07-.17-.11-.28-.33-.17-.56l2.68-5.8c.06-.11.17-.17.28-.11h0c3.79,2.18,7.87,3.12,12.16,2.79,1.67-.11,4.24-.84,4.02-2.96-.11-1.39-1.56-1.84-2.68-2.06-2.51-.56-7.03-1-10.49-2.23-4.46-1.62-6.31-5.64-5.02-10.27,1.56-5.64,8.76-7.48,14.01-7.37,3.96.06,7.76.89,11.33,2.46.17.06.28.28.17.45h0l-2.68,5.75c-.06.17-.28.22-.45.17h0c-3.01-1.51-6.19-2.18-9.54-2.06-1.45.11-2.68.45-3.63,1.06Z"/><path class="cls-1" d="m366.84,103.54c0-.61-.17-.67-.56-.17-1,1.34-2.29,2.23-3.79,2.68-5.19,1.62-12.28,1.06-15.29-3.96-.73-1.17-1.12-2.57-1.17-4.18-.17-4.35,2.01-7.25,6.42-8.7,1.28-.45,2.68-.67,4.18-.78,3.18-.22,5.86-.22,7.92-.11,1.79.11,2.29-.61,1.45-2.18l-.33-.67c-.84-1.73-2.23-2.68-4.13-2.96-4.18-.56-7.87.28-10.99,2.46-.11.06-.28.06-.33-.06h0l-2.85-5.64c-.17-.28-.06-.5.22-.67,2.79-1.62,5.97-2.68,9.54-3.24,5.36-.78,12.55.17,15.85,5.13,1.56,2.34,2.34,5.13,2.34,8.26-.06,10.55-.11,16.29-.11,17.35,0,.17-.11.28-.28.28h-7.81c-.17,0-.28-.11-.28-.28v-2.57Zm-.5-9.71c0-.22-.11-.33-.33-.33-3.18-.06-5.47-.06-6.81.06-1.45.11-2.51.39-3.07.84-1.51,1.23-1.84,2.68-1,4.3,1.23,2.29,4.13,2.46,6.53,1.95,1.9-.45,4.41-2.12,4.69-4.13.06-.73.06-1.62,0-2.68Z"/><path class="cls-1" d="m435.02,82.95c-2.01,1.34-1.23,3.4.89,4.02,6.19,1.79,16.07,1,16.52,9.37.45,8.87-9.65,10.94-16.35,10.38-3.85-.33-7.7-1.06-11.05-3.01-.17-.11-.28-.33-.17-.56l2.68-5.8c.06-.11.17-.17.28-.11h0c3.79,2.18,7.87,3.12,12.16,2.79,1.67-.11,4.24-.89,4.02-2.96-.11-1.39-1.56-1.84-2.68-2.06-2.51-.5-6.97-.95-10.49-2.18-4.46-1.56-6.31-5.64-5.02-10.27,1.56-5.64,8.7-7.48,13.95-7.37,3.96.06,7.76.89,11.33,2.46.17.06.28.28.17.45h0l-2.62,5.75c-.06.17-.28.22-.45.17h0c-3.01-1.51-6.19-2.18-9.54-2.06-1.51.06-2.68.39-3.63,1Z"/><path class="cls-1" d="m560.91,93.5c-.5,0-.67.22-.45.67,1.17,2.79,3.01,4.46,5.52,5.08,3.74.95,7.59.39,10.6-2.23.22-.17.5-.17.73.06l4.07,4.58c.11.17.11.39,0,.5-4.58,4.91-12.55,5.47-18.58,3.74-7.98-2.29-12.28-9.21-11.16-17.35.67-4.85,3.18-8.54,7.64-11.22,2.85-1.67,6.14-2.4,9.93-2.12,5.13.39,9.1,2.51,11.94,6.42,2.34,3.24,2.96,7.48,2.57,11.44,0,.22-.22.39-.45.39h-22.38v.06Zm-.39-5.3l14.62.06c.06,0,.06-.06.06-.06h0c0-3.4-3.24-6.19-7.31-6.19h-.11c-4.02,0-7.31,2.73-7.37,6.14h0q.06.06.11.06Z"/><path class="cls-1" d="m729.25,96.12v1.62c-.61,3.63-2.46,6.08-5.64,7.42-4.02,1.67-8.54,2.06-13.5,1.28-3.29-.5-5.86-1.17-8.48-2.79-.11-.06-.17-.22-.11-.33l2.68-5.8c.11-.22.22-.28.45-.17,3.96,2.12,7.92,3.07,11.94,2.73,1.34-.11,2.34-.45,3.07-.95.95-.67,1.28-1.45,1-2.29-.17-.56-.56-.95-1.17-1.23-1.9-.89-4.07-1-7.25-1.51-1.62-.22-2.79-.56-4.24-1.06-.78-.22-1.34-.45-1.62-.67-3.29-1.9-4.63-4.69-4.18-8.31.5-3.57,3.18-6.47,6.42-7.53,6.42-2.12,12.83-1.73,19.25,1.12.17.06.28.28.17.45h0l-2.62,5.75c-.06.17-.28.28-.45.17h0c-3.52-1.79-7.2-2.4-11.05-1.9-.78.11-1.62.5-2.51,1.17-1.12.89-1.06,2.46.22,3.18,1.23.67,2.23,1,3.01,1.12,3.91.5,7.09,1.17,9.49,2.01,2.9,1,4.63,3.18,5.13,6.53Z"/><path class="cls-1" d="m261.38,103.26c0-.17-.11-.28-.28-.28-.06,0-.17.06-.17.06-2.12,2.12-4.69,3.35-7.76,3.68-3.12.33-7.31-.5-9.82-2.46-3.96-3.01-4.63-7.48-4.63-12.22s0-10.04.06-16.13c0-.22.11-.33.33-.33h8.04c.17,0,.28.11.28.28h0c.06,8.09.06,13.28.06,15.46,0,3.79.95,7.09,5.3,7.7,3.52.5,6.08-1,7.59-4.46.28-.61.45-1.95.45-4.02,0-1.06,0-5.97.06-14.62,0-.17.11-.22.22-.28h8.26c.28,0,.45.11.45.45v29.96c0,.17-.17.33-.33.33h-7.7c-.22,0-.39-.17-.39-.39v-2.73h0Z"/><path class="cls-1" d="m497.8,75.64h8.43c.11,0,.22.11.22.22v30.24c0,.11-.11.22-.22.22h-8.43c-.11,0-.22-.11-.22-.22v-30.24c0-.11.11-.22.22-.22Z"/><path class="cls-1" d="m687.68,103.32c0-.17-.11-.28-.28-.28-.06,0-.17.06-.22.06-2.12,2.12-4.69,3.35-7.81,3.68s-7.31-.5-9.82-2.46c-3.96-3.07-4.63-7.48-4.63-12.22s0-10.04.06-16.13c0-.22.11-.33.33-.33h8.15c.17,0,.28.11.28.28h0c.06,8.09.06,13.28.06,15.46,0,3.79.95,7.09,5.3,7.7,3.52.5,6.08-1,7.64-4.46.28-.61.45-1.95.45-4.02,0-1.06,0-5.97.06-14.68,0-.11.11-.22.22-.28h8.26c.28,0,.45.17.45.45v29.96c0,.17-.17.33-.33.33h-7.7c-.22,0-.39-.17-.39-.39v-2.68h-.06Z"/><ellipse class="cls-1" cx="501.97" cy="66.32" rx="5.52" ry="4.97" transform="translate(-2.34 21.08) rotate(-2.4)"/></g><g><ellipse class="cls-2" cx="333.03" cy="118.11" rx="1.73" ry="1.62" transform="translate(-.82 2.33) rotate(-.4)"/><ellipse class="cls-2" cx="356.57" cy="118.1" rx="1.79" ry="1.62" transform="translate(-3.16 10) rotate(-1.6)"/><ellipse class="cls-2" cx="657.4" cy="118.12" rx="1.73" ry="1.56" transform="translate(-4.05 25.32) rotate(-2.2)"/><path class="cls-2" d="m601.25,121.34c.06-.17.06-.45.06-.78-.11-3.24,3.85-4.24,6.31-3.24.17.06.28.28.22.45l-.45,1.39c-.06.28-.28.33-.56.28l-1.12-.33c-.61-.17-1.23.11-1.51.67-.22.45-.33.73-.39.95-.11.73.11,1.06.67,1l2.12-.06c.22,0,.45.17.45.39h0v1.45c0,.28-.11.39-.39.39h-2.62c-.17,0-.22.06-.22.22v8.93c0,.11-.11.22-.22.22h-2.12c-.22,0-.28-.11-.28-.28v-8.43c0-.39-.22-.61-.61-.61h-.95c-.22,0-.45-.22-.45-.45v-1.34c0-.22.11-.39.33-.39l1.23-.11c.33-.06.5-.11.5-.33Z"/><path class="cls-2" d="m167.86,122.51c0,.11.11.22.22.28.06,0,.11,0,.17-.06,1.39-1.12,2.9-1.45,4.58-1.12,2.9.61,3.85,2.57,3.85,5.47v6.08c0,.17-.11.28-.28.28h-2.12c-.17,0-.28-.11-.28-.28h0c.11-3.35.06-5.58,0-6.64-.22-2.18-1.9-2.96-3.85-2.4-1.51.45-2.23,1.67-2.23,3.74v5.3c0,.17-.06.28-.28.28h-2.01c-.22,0-.33-.11-.33-.33v-15.51c0-.22.17-.45.45-.45h1.67c.33,0,.45.17.45.45v4.91Z"/><path class="cls-2" d="m291.73,133.51h-1.39c-3.85-.78-5.58-3.12-5.08-7.03.28-2.12,1.51-3.63,3.68-4.58,2.01-.84,3.91-.56,5.58.95.11.06.22.06.33,0,.06-.06.06-.11.06-.17v-5.3c0-.17.11-.28.28-.28h2.01c.22,0,.39.11.39.39v15.57c0,.22-.11.33-.33.33h-1.9c-.22,0-.33-.11-.33-.28l-.11-.67c-.06-.17-.11-.22-.28-.11-.95.5-1.9.95-2.9,1.17Zm-.33-2.4c1.9,0,3.46-1.62,3.46-3.57s-1.51-3.63-3.4-3.63-3.46,1.62-3.46,3.57c-.06,1.95,1.51,3.63,3.4,3.63Z"/><path class="cls-2" d="m304.4,122.51c0,.11.11.22.22.22.06,0,.11,0,.17-.06,1.39-1.06,2.9-1.45,4.52-1.12,2.9.61,3.85,2.57,3.85,5.41v6.03c0,.17-.11.28-.28.28h-2.12c-.17,0-.28-.11-.28-.28h0c.11-3.35.06-5.52,0-6.58-.22-2.12-1.9-2.9-3.85-2.4-1.51.45-2.23,1.67-2.23,3.74,0,3.18,0,4.97.06,5.25,0,.17-.06.28-.28.28h-2.01c-.22,0-.33-.11-.33-.33v-15.4c0-.22.17-.45.45-.45h1.67c.33,0,.45.17.45.45v4.97h0Z"/><path class="cls-2" d="m424.42,126.53l4.97-4.41c.39-.33.95-.56,1.45-.56h1.28c.73,0,.84.28.33.78l-3.91,3.91c-.22.22-.22.56-.06.78l4.85,6.08c.06.06.06.17,0,.22-.06,0-.06.06-.11.06h-2.79c-.17,0-.33-.06-.45-.22l-3.63-4.52c-.06-.11-.22-.11-.33-.06-1.62.95-2.29,2.4-1.84,4.35.06.33-.06.45-.39.45h-2.01c-.28,0-.45-.17-.45-.45v-15.4c0-.28.17-.45.45-.45h1.9c.28,0,.45.17.45.45v8.87c0,.11.06.17.17.17.06,0,.06-.06.11-.06Z"/><path class="cls-2" d="m560.24,117.1h2.18c.17,0,.28.11.28.28v15.74c0,.17-.11.28-.28.28h-2.18c-.17,0-.28-.11-.28-.28v-15.74c0-.17.11-.28.28-.28Z"/><circle class="cls-2" cx="613.13" cy="118.5" r="1.28"/><circle class="cls-2" cx="617.43" cy="118.5" r="1.34"/><path class="cls-2" d="m220.31,133.51h-2.9c-4.74-1.06-6.97-3.85-6.81-8.26.22-6.14,6.19-8.37,11.33-6.81,1.06.33,1.9.78,2.57,1.39.22.22.28.56.06.78-.45.61-.84.95-1.23,1.12-.17.06-.33.06-.5-.06-.78-.45-1.39-.78-1.9-.95-3.68-1.34-7.7.89-7.59,5.08.06,1.79.84,3.24,2.46,4.3,1.67,1.12,3.63,1.17,5.97.22.17-.06.28-.22.28-.39v-4.18c0-.17.17-.33.33-.33h1.79c.28,0,.45.17.45.45v5.47c0,.28-.17.56-.45.67l-3.85,1.51Z"/><path class="cls-2" d="m648.06,133.51h-2.96l-3.91-1.28c-.39-.11-.5-.39-.33-.73l.56-1.45c.11-.33.33-.39.61-.22,1.84,1.12,6.08,2.29,7.81.28.45-.56.39-1.34-.17-1.79h0c-1.39-1.12-3.63-1.39-5.3-1.95-2.46-.78-3.79-2.23-3.24-4.85.33-1.67,1.39-2.73,3.24-3.24,2.51-.67,5.08-.39,7.64.78.11.06.11.11.11.22l-.73,1.95c-.06.11-.11.11-.22.06-1.95-1.06-3.85-1.34-5.8-.89-2.18.5-2.29,3.01,0,3.57,1.06.28,2.57.67,4.41,1.28,2.06.67,3.35,2.23,2.9,4.46-.39,2.06-1.95,3.29-4.63,3.79Z"/><path class="cls-2" d="m158.15,118.11h2.23c.17,0,.28.11.28.28v14.68c0,.17-.11.28-.28.28h-2.23c-.17,0-.28-.11-.28-.28v-14.68c0-.11.11-.28.28-.28Z"/><path class="cls-2" d="m395.85,125.14h6.75c.17,0,.28.11.28.28h0v1.79c0,.17-.11.28-.28.28h-6.75c-.17,0-.28.11-.28.28h0v5.3c0,.17-.11.28-.28.28h-2.23c-.17,0-.28-.11-.28-.28v-14.62c0-.17.11-.28.28-.28h10.49c.17,0,.28.11.28.28v1.73c0,.17-.11.28-.28.28h-7.7c-.17,0-.28.11-.28.28v4.18c0,.11.11.22.28.22Z"/><path class="cls-2" d="m546.51,129.21v3.91c0,.17-.06.22-.22.22h-2.34c-.17,0-.28-.11-.28-.28v-14.62c0-.17.11-.28.28-.28,1.56,0,3.4-.06,5.69-.06,1.95,0,4.18.28,5.47,1.67,1.12,1.23,1.56,2.73,1.28,4.58-.73,4.91-5.97,4.58-9.54,4.46-.22.06-.33.17-.33.39Zm0-8.48v5.58c0,.11.11.22.22.22h3.35c1.95,0,3.57-1.23,3.52-2.79v-.5c0-1.51-1.62-2.79-3.57-2.73h-3.35c-.06,0-.17.11-.17.22h0Z"/><path class="cls-2" d="m343.68,133.51h-1.39c-1.28-.22-2.18-.84-2.68-1.67-.33-.56-.5-1.45-.5-2.85v-4.85c0-.28-.11-.39-.39-.33l-.95.17c-.33.06-.5-.06-.5-.39v-1.56c0-.22.11-.33.33-.33h1.17c.22,0,.39-.17.39-.33h0v-1.9c0-.33.17-.5.5-.5h1.56c.39,0,.61.22.61.61v1.67c0,.22.22.45.45.45h2.29c.22,0,.33.11.33.33v1.56c0,.22-.11.33-.33.33h-2.46c-.17,0-.28.11-.28.28v5.08c.06,2.06,1.45,2.06,2.9,1.73.28-.06.45.06.5.33l.22,1.17c.06.28-.06.45-.33.56l-1.45.45Z"/><path class="cls-2" d="m247.54,133.51h-1.84l-3.29-.89c-.56-.17-.73-.5-.45-1l.45-.89c.22-.45.5-.56.95-.33,1.28.67,4.69,1.51,5.69,0,.22-.39.17-.84-.22-1.12-.06-.06-.17-.06-.22-.11-.67-.22-1.9-.45-3.74-.78-1-.17-2.29-.95-2.57-2.18-.5-2.18.33-3.63,2.51-4.35,1.9-.67,3.96-.56,6.08.33.5.22.61.56.39,1l-.33.67c-.17.39-.61.56-1,.45-1.56-.56-2.96-.67-4.18-.33-.84.22-1.17.73-.89,1.45.11.33.39.56.67.61.73.17,2.01.45,3.91.84.78.17,1.39.56,1.9,1.12.39.45.56,1.12.56,1.95,0,2.06-1.45,3.24-4.35,3.57Z"/><path class="cls-2" d="m455.67,133.51h-1.73l-3.68-1c-.22-.06-.33-.28-.28-.5v-.06l.67-1.39c.17-.33.39-.45.73-.22,1.51.84,3.07,1.06,4.63.73.67-.11,1.06-.39,1.17-.84.17-.5-.11-1.06-.67-1.23h-.11c-.06,0-1.28-.28-3.79-.78-1.79-.39-2.57-1.45-2.4-3.24.17-1.56,1-2.57,2.51-3.12,2.18-.73,4.3-.56,6.47.45.17.06.28.22.28.39,0,.33-.17.78-.56,1.28-.11.17-.28.22-.45.22-1.79-.17-3.18-.73-4.85-.22-.5.17-.84.73-.67,1.28h0c.17.5.56.78,1.23.95,1.79.33,2.96.61,3.52.73.78.22,1.34.56,1.79,1.12.39.5.61,1.17.56,1.84.06,2.12-1.45,3.29-4.35,3.63Z"/><path class="cls-2" d="m183.76,122.85c1.06-.95,2.23-1.39,3.4-1.34.22,0,.39.17.39.45v1.79c0,.28-.11.39-.39.33-2.62-.11-3.68,1.56-3.74,4.07-.06,2.18,0,3.79,0,4.85,0,.17-.11.33-.33.33h-2.01c-.22,0-.33-.11-.33-.33v-11.16c0-.17.11-.28.28-.28h1.95c.17,0,.28.11.33.28v.78c.11.39.22.45.45.22Z"/><path class="cls-2" d="m196.6,133.51h-1.67c-3.63-.61-5.8-3.29-5.3-6.97.45-3.18,3.46-5.58,6.7-5.02,1.51.28,2.62.84,3.4,1.67,1.28,1.39,1.84,3.01,1.67,4.91,0,.11-.11.22-.22.22h-8.37c-.28,0-.45.22-.45.5,0,.11,0,.17.06.22,1.39,2.34,4.13,2.68,6.36,1.17.28-.22.56-.17.84.11l.78.84c.28.33.22.61-.11.84-1.12.78-2.34,1.28-3.68,1.51Zm-4.24-6.92l6.31-.06c.06,0,.06-.06.06-.06h0c0-1.51-1.45-2.73-3.18-2.73h-.11c-1.73,0-3.18,1.23-3.18,2.73h0c.06.11.11.11.11.11h0Z"/><path class="cls-2" d="m234.99,133.51h-1.34c-3.52-.45-5.8-2.73-5.69-6.31.11-3.63,3.46-6.36,7.03-5.58,3.01.61,4.63,2.68,4.8,6.19,0,.33-.17.5-.5.5h-8.15c-.28,0-.5.22-.5.5,0,.06,0,.17.06.22,1.17,2.51,4.35,2.62,6.36,1.28.33-.22.67-.22.95.11l.67.84c.22.33.22.56-.11.78-1,.67-2.18,1.17-3.57,1.45Zm-4.35-6.86l6.42-.06q.06,0,.06-.06h0v-.06c0-1.56-1.45-2.79-3.24-2.73h-.11c-1.79,0-3.18,1.28-3.18,2.79l.06.11c-.06-.06,0,0,0,0Z"/><path class="cls-2" d="m260.76,133.51h-1.73c-1.84-.33-3.07-1.17-3.68-2.46-.33-.73-.5-2.06-.45-4.02.06-1.67.06-3.29.06-4.85,0-.39.22-.61.61-.61h1.45c.45,0,.67.22.67.67-.06,2.12-.06,4.18,0,6.14.06,1.06.39,1.79,1.12,2.23,1.51.89,3.4.39,4.3-1.17.28-.5.45-1.28.45-2.4v-4.74c0-.39.33-.73.73-.73h1.39c.45,0,.73.22.73.73v10.71c0,.28-.22.5-.5.5h-1.51c-.28,0-.5-.22-.5-.5h0c0-.17,0-.33-.11-.39-.11-.17-.28-.17-.45-.11l-2.57,1Z"/><path class="cls-2" d="m273.38,122.79c1.84-1.45,3.74-1.73,5.86-.89,1.67.67,2.57,2.23,2.62,4.24.06,2.23.11,4.52.06,6.86,0,.22-.11.33-.33.33h-2.01c-.17,0-.28-.11-.28-.28h0c.06-3.63,0-5.69,0-6.25-.17-2.23-1.34-3.18-3.52-2.73-1.67.33-2.51,1.45-2.57,3.46,0,2.23,0,4.02.06,5.41,0,.22-.17.45-.39.45h-1.95c-.28,0-.39-.11-.39-.45v-10.88c0-.28.17-.45.45-.45h1.62c.22,0,.33.11.33.28l.11.73c0,.28.11.33.33.17Z"/><path class="cls-2" d="m323.65,133.51h-1.51c-2.9-.45-4.69-1.9-5.36-4.3-.45-1.67-.28-3.24.45-4.63,1.79-3.35,6.19-4.13,9.1-1.73,1.45,1.23,2.18,2.96,2.12,5.25,0,.11-.11.22-.22.22h-8.2c-.78,0-.95.33-.45.95l.61.78c.5.67,1.28,1.06,2.12,1,1.73,0,2.9-.33,3.52-.84.22-.22.56-.17.78.06h0l.84.95c.22.28.22.5-.06.67-1.12.84-2.34,1.39-3.74,1.62Zm-4.24-6.92l6.31-.06c.06,0,.06-.06.06-.06h0c0-1.51-1.45-2.73-3.18-2.73h-.11c-1.73,0-3.18,1.23-3.12,2.79h0c-.06.06,0,.06.06.06Z"/><path class="cls-2" d="m332.02,121.57h1.95c.22,0,.39.17.39.39v11.05c0,.22-.17.39-.39.39h-1.95c-.22,0-.39-.17-.39-.39v-11.05c0-.22.17-.39.39-.39Z"/><path class="cls-2" d="m355.62,121.62h1.95c.22,0,.39.17.39.39v10.99c0,.22-.17.39-.39.39h-1.95c-.22,0-.39-.17-.39-.39v-10.99c0-.22.17-.39.39-.39Z"/><path class="cls-2" d="m365.16,122.63c.45-.22.67-.39.73-.45,2.46-1.28,4.63-.95,6.42,1.06.11.11.33.17.45,0h0c1.51-1.62,3.4-2.12,5.69-1.56,2.18.56,3.12,2.57,3.12,4.91.06,2.4,0,4.52-.06,6.42,0,.17-.11.28-.28.28h-1.95c-.22,0-.39-.11-.39-.39v-5.86c0-.73-.11-1.28-.28-1.79-.67-1.9-3.46-1.62-4.52-.5-.5.5-.78,1.51-.84,2.9-.06,1.62-.06,3.4,0,5.3,0,.22-.11.39-.33.39h-1.95c-.22,0-.39-.17-.39-.39h0c.06-2.9.06-5.08,0-6.36-.11-1.9-1.06-2.79-2.85-2.62s-2.73,1.23-2.79,3.18c-.11,2.57-.11,4.52-.06,5.8,0,.22-.11.33-.33.33h-1.9c-.22,0-.39-.11-.39-.33v-10.99c0-.22.11-.33.33-.33h1.9c.28,0,.39.11.39.39v.45c-.06.22.06.33.28.17Z"/><path class="cls-2" d="m412.82,133.51h-1.79c-2.96-.56-4.69-2.12-5.13-4.63-.45-2.46.22-4.41,2.01-5.86,3.85-3.24,10.1-.95,10.21,4.41.06,3.18-1.73,5.25-5.3,6.08Zm-.95-2.34c1.95.06,3.52-1.56,3.57-3.63s-1.51-3.74-3.4-3.74h0c-1.95-.06-3.52,1.56-3.57,3.63-.06,2.01,1.51,3.68,3.4,3.74h0Z"/><path class="cls-2" d="m441.05,133.51h-.67c-1.95-.17-3.29-.89-4.02-2.18-.45-.78-.67-2.12-.67-4.02s0-3.63-.06-5.13c0-.39.17-.56.5-.56h1.73c.28,0,.5.22.5.5h0c-.06,1.79-.11,3.79-.06,6.03,0,.95.22,1.62.56,2.01,1.39,1.45,3.79,1.23,4.85-.39.39-.56.56-1.51.56-2.73,0-2.73-.06-4.35-.06-4.91,0-.33.17-.5.5-.5h1.62c.39,0,.61.22.61.61v10.71c0,.28-.11.39-.39.39h-1.73c-.22,0-.39-.17-.39-.39v-.06c.06-.22.06-.39,0-.56-.06-.22-.17-.28-.33-.11-.95.61-1.95,1.06-3.07,1.28Z"/><path class="cls-2" d="m475.37,133.51h-1.45c-2.9-.56-4.3-2.18-4.18-5.02.06-2.12,0-4.3,0-6.31,0-.45.22-.61.61-.61h1.45c.33,0,.61.28.61.61h0c0,1.62-.06,3.12,0,4.63,0,1.39.17,2.34.45,2.9.5,1,1.56,1.39,3.12,1.17,1-.17,1.67-.67,2.06-1.56.22-.45.28-1.28.28-2.4,0-1.79,0-3.4-.06-4.91,0-.28.22-.45.45-.45h1.73c.33,0,.45.17.45.45v10.94c0,.22-.17.39-.39.39h-1.51c-.28,0-.5-.17-.56-.45l-.11-.45c-.06-.22-.17-.28-.39-.17-.73.61-1.62,1-2.57,1.23Z"/><path class="cls-2" d="m487.87,122.63c.06.28.17.39.39.22,1.84-1.45,3.79-1.73,5.86-.89,1.67.67,2.57,2.29,2.62,4.24.06,2.23.06,4.52,0,6.86,0,.22-.11.33-.33.33h-2.01c-.17,0-.28-.11-.28-.28h0c.06-3.63.06-5.69,0-6.25-.17-2.23-1.34-3.18-3.52-2.79-1.67.28-2.57,1.45-2.57,3.46v5.41c0,.22-.17.45-.39.45h-1.9c-.28,0-.39-.17-.39-.45v-10.88c0-.28.17-.45.45-.45h1.62c.22,0,.33.11.33.28l.11.73Z"/><path class="cls-2" d="m505.28,133.51h-1.79l-3.24-.89c-.45-.11-.56-.39-.39-.78l.45-1.12c.11-.28.39-.45.67-.33,1.79.61,3.63,1.23,5.36.56.67-.28.95-.67.78-1.28-.06-.22-.22-.39-.5-.45-1-.28-2.29-.56-3.79-.84-1.34-.28-2.73-1.06-2.85-2.57-.28-4.91,5.91-4.74,8.93-3.4.28.11.39.33.22.67l-.5,1.12c-.17.33-.39.45-.78.28-1.67-.61-3.24-.73-4.69-.28-.5.17-.78.67-.61,1.17,0,.11.06.17.11.22.28.39.67.67,1.23.78,1.56.33,5.02.39,5.64,2.57.89,3.07-1.79,4.02-4.24,4.58Z"/><path class="cls-2" d="m519,133.51h-1.67c-3.12-.56-4.91-2.18-5.36-4.85-.28-1.62-.06-3.01.67-4.24,1.84-3.12,5.86-3.85,8.82-1.73,1.62,1.17,2.34,2.96,2.18,5.36,0,.22-.22.39-.45.39h-8.31c-.17,0-.33.11-.33.28,0,.06,0,.11.06.11.84,1.79,2.34,2.57,4.46,2.23.73-.11,1.34-.33,1.84-.67.45-.33.84-.28,1.17.11l.61.67c.33.33.28.67-.11.95-1.06.61-2.23,1.06-3.57,1.39Zm-4.35-6.92h6.25c.06,0,.06-.06.06-.06h0c0-1.51-1.39-2.73-3.18-2.73h-.11c-1.73,0-3.12,1.23-3.12,2.73h0c.06,0,.11.06.11.06h0Z"/><path class="cls-2" d="m529.55,122.68c0,.33.11.39.33.17,1.06-.95,2.18-1.39,3.35-1.39.22,0,.39.17.39.39v1.79c0,.28-.11.39-.39.33-2.62-.11-3.63,1.56-3.68,4.07,0,2.18,0,3.79.06,4.85,0,.17-.11.33-.33.33h-2.01c-.22,0-.33-.11-.33-.33l-.06-11.1c0-.17.11-.28.28-.28h1.95c.17,0,.28.11.28.28l.17.89Z"/><path class="cls-2" d="m572.57,133.51h-1.51c-2.85-.5-4.24-2.18-4.24-5.08,0-2.23,0-4.41.06-6.42,0-.28.17-.45.45-.45h1.79c.28,0,.56.22.56.56v5.69c-.11,2.29.89,3.35,3.01,3.18,1.67-.11,2.57-1.12,2.62-3.07.06-1.79.11-3.74.06-5.86,0-.33.17-.45.45-.45h1.84c.33,0,.45.17.45.45v10.99c0,.17-.11.28-.28.28h-1.9c-.22,0-.33-.11-.33-.33v-.61c0-.17-.11-.28-.28-.28-.06,0-.11,0-.17.06-.67.67-1.56,1.12-2.57,1.34Z"/><path class="cls-2" d="m586.63,133.51h-1.51l-3.35-.89c-.45-.11-.61-.39-.45-.89l.39-1c.17-.45.5-.61.95-.39,1.79.89,3.52,1.06,5.08.61.78-.22,1-.67.67-1.39-.17-.33-.45-.56-.78-.61-1.79-.33-3.07-.61-3.91-.84-1.51-.45-2.29-1.34-2.29-2.79,0-1.62.78-2.73,2.46-3.4,1.95-.78,4.13-.67,6.58.28.33.17.45.39.28.73l-.45.95c-.17.33-.39.45-.73.33-2.51-.61-4.18-.61-5.08-.06-.39.28-.5.78-.28,1.23.56.95,2.57,1.06,4.07,1.34.61.11,1.34.45,2.18,1.06.17.11.28.22.33.39,1.06,3.07-.33,4.85-4.18,5.36Z"/><path class="cls-2" d="m627.75,122.74c0,.33.11.39.33.17,1.06-.95,2.18-1.39,3.35-1.34.22,0,.39.17.39.39v1.79c0,.22-.11.39-.39.33-2.62-.11-3.63,1.56-3.68,4.07v4.85c0,.17-.11.33-.33.33h-2.01c-.22,0-.33-.11-.33-.33l-.06-11.05c0-.17.11-.28.28-.28h1.95c.17,0,.28.11.28.28l.22.78Z"/><path class="cls-2" d="m656.43,121.62h1.95c.22,0,.39.17.39.45v10.94c0,.22-.17.39-.45.39h-1.95c-.22,0-.39-.17-.39-.45v-10.94c0-.22.17-.39.45-.39Z"/><path class="cls-2" d="m669.1,133.51h-1.56c-1.84-.33-3.18-.89-3.91-1.79-1.67-2.01-2.06-4.18-1.12-6.58,1.51-3.96,6.81-4.74,9.82-1.9,1.28,1.23,1.84,2.9,1.62,5.02,0,.11-.11.17-.22.17h-8.37c-.22,0-.39.17-.39.39,0,.06,0,.17.06.22,1.51,2.46,4.02,2.57,6.42,1.17.22-.17.56-.11.73.11l.78.89c.22.28.22.61-.06.89l-.06.06c-1.28.73-2.51,1.17-3.74,1.34Zm-4.13-6.97l6.14-.06q.06,0,.06-.06h0c0-1.45-1.34-2.68-3.01-2.68h-.22c-1.67,0-3.01,1.23-3.01,2.68h0c0,.11.06.11.06.11h0Z"/><path class="cls-2" d="m615.42,133.51h-1.56c-2.62-.45-4.02-1.9-4.18-4.35-.11-1.51-.11-3.91-.06-7.2,0-.28.17-.39.39-.39h1.95c.28,0,.39.11.39.39,0,3.63-.06,5.58-.06,5.8-.06,1.73.61,2.79,1.95,3.12,2.23.56,3.85-1,3.96-3.18.11-1.51.11-3.4.06-5.75,0-.28.11-.39.39-.39h1.79c.28,0,.45.22.45.45h0v10.94c0,.28-.17.45-.45.45h-1.73c-.33,0-.45-.17-.45-.45,0-.17,0-.33-.06-.56s-.17-.28-.39-.11c-.67.56-1.51.95-2.4,1.23Z"/></g></svg>