<?xml version="1.0" encoding="UTF-8"?>
<svg>
	<symbol xmlns="http://www.w3.org/2000/svg" id="calendar-clock" viewBox="0 0 24 24">
		<path fill="currentColor" d="M17,10.039c-3.859,0-7,3.14-7,7,0,3.838,3.141,6.961,7,6.961s7-3.14,7-7c0-3.838-3.141-6.961-7-6.961Zm0,11.961c-2.757,0-5-2.226-5-4.961,0-2.757,2.243-5,5-5s5,2.226,5,4.961c0,2.757-2.243,5-5,5Zm1.707-4.707c.391,.391,.391,1.023,0,1.414-.195,.195-.451,.293-.707,.293s-.512-.098-.707-.293l-1-1c-.188-.188-.293-.442-.293-.707v-2c0-.552,.447-1,1-1s1,.448,1,1v1.586l.707,.707Zm5.293-10.293v2c0,.552-.447,1-1,1s-1-.448-1-1v-2c0-1.654-1.346-3-3-3H5c-1.654,0-3,1.346-3,3v1H11c.552,0,1,.448,1,1s-.448,1-1,1H2v9c0,1.654,1.346,3,3,3h4c.552,0,1,.448,1,1s-.448,1-1,1H5c-2.757,0-5-2.243-5-5V7C0,4.243,2.243,2,5,2h1V1c0-.552,.448-1,1-1s1,.448,1,1v1h8V1c0-.552,.447-1,1-1s1,.448,1,1v1h1c2.757,0,5,2.243,5,5Z"></path>
	</symbol>
	<symbol xmlns="http://www.w3.org/2000/svg" id="member-list" viewBox="0 0 24 24">
		<path fill="currentColor" d="M21,11h-5c-1.654,0-3,1.346-3,3v7c0,1.654,1.346,3,3,3h5c1.654,0,3-1.346,3-3v-7c0-1.654-1.346-3-3-3Zm1,10c0,.551-.448,1-1,1h-5c-.552,0-1-.449-1-1v-7c0-.551,.448-1,1-1h5c.552,0,1,.449,1,1v7Zm-1-5.003c0,.552-.447,1-1,1h-3c-.553,0-1-.448-1-1s.447-1,1-1h3c.553,0,1,.448,1,1Zm0,3.003c0,.552-.447,1-1,1h-3c-.553,0-1-.448-1-1s.447-1,1-1h3c.553,0,1,.448,1,1Zm-12-7c3.309,0,6-2.691,6-6S12.309,0,9,0,3,2.691,3,6s2.691,6,6,6Zm0-10c2.206,0,4,1.794,4,4s-1.794,4-4,4-4-1.794-4-4,1.794-4,4-4Zm2,13c0,.552-.447,1-1,1h-1c-3.859,0-7,3.14-7,7,0,.552-.447,1-1,1s-1-.448-1-1c0-4.962,4.037-9,9-9h1c.553,0,1,.448,1,1Z"></path>
	</symbol>
	<symbol id="task-checklist" xmlns="http://www.w3.org/2000/svg" viewBox="0 0 24 24">
		<path fill="currentColor" d="m23.121.879c-1.17-1.17-3.072-1.17-4.242 0l-6.707 6.707c-.756.755-1.172 1.76-1.172 2.828v1.586c0 .552.447 1 1 1h1.586c1.068 0 2.073-.417 2.828-1.172l6.707-6.707c1.164-1.117 1.164-3.126 0-4.243zm-1.414 2.828-6.707 6.707c-.378.378-.88.586-1.414.586h-.586v-.586c0-.526.214-1.042.586-1.414l6.707-6.707c.391-.39 1.023-.39 1.414 0 .388.372.388 1.042 0 1.414zm-9.707 14.293c-.553 0-1-.447-1-1s.447-1 1-1h3c.553 0 1 .447 1 1s-.447 1-1 1zm8-4v5c0 2.757-2.243 5-5 5h-10c-2.757 0-5-2.243-5-5v-14c0-2.757 2.243-5 5-5h9c.553 0 1 .448 1 1s-.447 1-1 1h-9c-1.654 0-3 1.346-3 3v14c0 1.654 1.346 3 3 3h10c1.654 0 3-1.346 3-3v-5c0-.553.447-1 1-1s1 .447 1 1zm-10.833-2.333-1.687 1.687c-.431.431-.995.648-1.561.648-.533 0-1.066-.193-1.491-.582l-.669-.579c-.417-.362-.462-.994-.101-1.411.363-.419.994-.461 1.411-.101l.689.598c.103.093.228.092.307.013l1.687-1.687c.391-.391 1.023-.391 1.414 0s.391 1.023 0 1.414zm0-4.96-1.687 1.687c-.431.431-.995.648-1.561.648-.533 0-1.066-.193-1.491-.582l-.669-.579c-.417-.362-.462-.994-.101-1.411.363-.418.994-.461 1.411-.101l.689.598c.103.094.228.092.307.013l1.687-1.687c.391-.391 1.023-.391 1.414 0s.391 1.023 0 1.414zm0 8.546c.391.391.391 1.023 0 1.414l-1.687 1.687c-.431.431-.995.648-1.561.648-.533 0-1.066-.193-1.491-.582l-.669-.579c-.417-.362-.462-.993-.101-1.411.363-.417.994-.462 1.411-.101l.689.598c.103.093.228.092.307.013l1.687-1.687c.391-.391 1.023-.391 1.414 0z"></path>
	</symbol>
	<symbol id="arrow-small-left" xmlns="http://www.w3.org/2000/svg"  viewBox="0 0 24 24">
		<path fill="currentColor" d="M0.6,12C0.6,12,0.6,12,0.6,12L0.6,12z M22.6,11.2H2.3c0.1-0.3,0.3-0.7,0.6-0.9l6.5-6.6c0.3-0.3,0.3-0.8,0-1.2 C9,2.2,8.5,2.2,8.2,2.5L1.8,9.1C1,9.9,0.6,11,0.6,12c0,1,0.4,2.1,1.2,2.9l6.4,6.7c0.2,0.2,0.4,0.3,0.6,0.3c0.2,0,0.4-0.1,0.6-0.2	c0.3-0.3,0.3-0.8,0-1.2l-6.4-6.7c-0.3-0.3-0.5-0.6-0.6-0.9h20.3c0.5,0,0.8-0.4,0.8-0.8S23.1,11.2,22.6,11.2L22.6,11.2z"/>
	</symbol>
	
	
	<symbol xmlns="http://www.w3.org/2000/svg" id="bookmark" viewBox="0 0 24 24">
		<path fill="currentColor" d="M20.137,24a2.8,2.8,0,0,1-1.987-.835L12,17.051,5.85,23.169a2.8,2.8,0,0,1-3.095.609A2.8,2.8,0,0,1,1,21.154V5A5,5,0,0,1,6,0H18a5,5,0,0,1,5,5V21.154a2.8,2.8,0,0,1-1.751,2.624A2.867,2.867,0,0,1,20.137,24ZM6,2A3,3,0,0,0,3,5V21.154a.843.843,0,0,0,1.437.6h0L11.3,14.933a1,1,0,0,1,1.41,0l6.855,6.819a.843.843,0,0,0,1.437-.6V5a3,3,0,0,0-3-3Z"></path>
	</symbol>
	<symbol xmlns="http://www.w3.org/2000/svg" id="calendar-plus" viewBox="0 0 24 24">
		<path fill="currentColor" d="M19,2h-1V1c0-.552-.448-1-1-1s-1,.448-1,1v1H8V1c0-.552-.448-1-1-1s-1,.448-1,1v1h-1C2.243,2,0,4.243,0,7v12c0,2.757,2.243,5,5,5h14c2.757,0,5-2.243,5-5V7c0-2.757-2.243-5-5-5ZM5,4h14c1.654,0,3,1.346,3,3v1H2v-1c0-1.654,1.346-3,3-3Zm14,18H5c-1.654,0-3-1.346-3-3V10H22v9c0,1.654-1.346,3-3,3Zm-3-6c0,.552-.448,1-1,1h-2v2c0,.552-.448,1-1,1s-1-.448-1-1v-2h-2c-.552,0-1-.448-1-1s.448-1,1-1h2v-2c0-.552,.448-1,1-1s1,.448,1,1v2h2c.552,0,1,.448,1,1Z"></path>
	</symbol>
	<symbol xmlns="http://www.w3.org/2000/svg" id="check-circle" viewBox="0 0 24 24">
		<path fill="currentColor" d="m18.214,9.098c.387.394.381,1.027-.014,1.414l-4.426,4.345c-.783.768-1.791,1.151-2.8,1.151-.998,0-1.996-.376-2.776-1.129l-1.899-1.867c-.394-.387-.399-1.02-.012-1.414.386-.395,1.021-.4,1.414-.012l1.893,1.861c.776.75,2.001.746,2.781-.018l4.425-4.344c.393-.388,1.024-.381,1.414.013Zm5.786,2.902c0,6.617-5.383,12-12,12S0,18.617,0,12,5.383,0,12,0s12,5.383,12,12Zm-2,0c0-5.514-4.486-10-10-10S2,6.486,2,12s4.486,10,10,10,10-4.486,10-10Z"></path>
	</symbol>
	<symbol xmlns="http://www.w3.org/2000/svg" xmlns:xlink="http://www.w3.org/1999/xlink" version="1.1" id="menu-dots-vertical" x="0px" y="0px" xml:space="preserve" viewBox="0 0 512 512">
		<circle fill="currentColor" cx="256" cy="53.333" r="53.333"></circle>
		<circle fill="currentColor" cx="256" cy="256" r="53.333"></circle>
		<circle fill="currentColor" cx="256" cy="458.667" r="53.333"></circle>
	</symbol>
	<symbol xmlns="http://www.w3.org/2000/svg" id="shuffle" viewBox="0 0 24 24">
		<path fill="currentColor" d="M23.421,16.583,20.13,13.292a1,1,0,1,0-1.413,1.414L21.007,17A9.332,9.332,0,0,1,14.321,14.2a.982.982,0,0,0-1.408.08L12.9,14.3a1,1,0,0,0,.075,1.382A11.177,11.177,0,0,0,21.01,19l-2.293,2.293A1,1,0,1,0,20.13,22.7l3.291-3.291A2,2,0,0,0,23.421,16.583Z"></path>
		<path fill="currentColor" d="M21.007,7l-2.29,2.29a.892.892,0,0,0-.054.082.992.992,0,0,0,1.467,1.332L21.836,9l1.586-1.585a2,2,0,0,0,.457-2.1,1.969,1.969,0,0,0-.458-.728L20.13,1.3a1,1,0,1,0-1.413,1.413L21.01,5.005c-4.933.012-7.637,2.674-10.089,5.474C8.669,7.937,6,5.4,1.487,5.046L1.006,5a1,1,0,0,0-1,1,1.02,1.02,0,0,0,1,1c.072,0,.287.033.287.033C5.189,7.328,7.425,9.522,9.6,12c-2.162,2.466-4.383,4.7-8.247,4.96l-.4.021a.994.994,0,1,0,.124,1.985c.156-.007.41-.013.535-.023,5.02-.387,7.743-3.6,10.171-6.409C14.235,9.7,16.551,7.018,21.007,7Z"></path>
	</symbol>
</svg>